<?xml version="1.0" encoding="utf-8"?>
<!-- Generator: Adobe Illustrator 23.0.3, SVG Export Plug-In . SVG Version: 6.00 Build 0)  -->
<svg version="1.1" id="Calque_1" xmlns="http://www.w3.org/2000/svg" xmlns:xlink="http://www.w3.org/1999/xlink" x="0px" y="0px"
	 viewBox="0 0 110 108" style="enable-background:new 0 0 110 108;" xml:space="preserve">
<style type="text/css">
	.st0{fill:#F9DAC5;}
	.st1{fill:url(#SVGID_1_);}
	.st2{fill:#1DACBC;}
	.st3{fill:#F2BC9E;}
	.st4{fill:#332113;}
	.st5{fill:url(#SVGID_2_);}
	.st6{fill:#FFFFFF;stroke:#D6925F;stroke-width:1.9275;stroke-miterlimit:10;}
	.st7{fill:#EFAB84;}
	.st8{fill:url(#SVGID_3_);}
</style>
<g>
	<path class="st0" d="M86.7,92.5c-1.5-1.2-3.3-2.1-5.1-2.7l-17.3-5.4l0,0C63,84,62.3,82.9,62,81.6c-0.6-3.6-0.6-13.1-0.5-14.7
		c0-0.1-0.1-0.2-0.2-0.2H46c-0.1,0-0.2,0.1-0.2,0.2c0,1.5,0.1,10.9-0.5,14.7c-0.2,1.3-0.9,2.4-2.2,2.8l0,0l-17.4,5.4
		c-1.6,0.5-3.1,1.2-4.5,2.2c-7,5.2-7.3,13.7-7.5,15.3c0,0.1,0.1,0.3,0.2,0.3h39.7h39.7c0.1,0,0.2-0.1,0.2-0.3
		C93.3,105.7,93.2,97.7,86.7,92.5z"/>
	<linearGradient id="SVGID_1_" gradientUnits="userSpaceOnUse" x1="54.4552" y1="82.4348" x2="54.4552" y2="52.5181">
		<stop  offset="0.1608" style="stop-color:#D86D25"/>
		<stop  offset="0.6432" style="stop-color:#E57F39"/>
	</linearGradient>
	<path class="st1" d="M75.1,93.2c5.3,1,11-0.5,15.3-4s4.6-9.1,4.8-14.7c-3.6,2.9-9.3,0.8-11.6-3.2c-2.4-4-2.8-8.9-2.3-13.5
		c0.7-6.5,1.4-13,1-19.5c-0.4-6.5-2-13.1-5.5-18.4C71.6,11.9,62.3,8,53.2,8s-18.4,3.9-23.5,11.9c-3.5,5.4-5.1,11.9-5.5,18.4
		c-0.4,6.5,0.3,13,1,19.5c0.5,4.6,0.1,9.6-2.3,13.5c-2.4,4-5.6,6.1-9.1,3.2c0.2,5.6,0.6,11.2,4.8,14.7s7.4,5,12.8,4H75.1z"/>
	<path class="st0" d="M86.7,92.5c-1.5-1.2-3.3-2.1-5.1-2.7l-17.3-5.4l0,0C63,84,62.3,82.9,62,81.6c-0.6-3.6-0.6-13.1-0.5-14.7
		c0-0.1-0.1-0.2-0.2-0.2H46c-0.1,0-0.2,0.1-0.2,0.2c0,1.5,0.1,10.9-0.5,14.7c-0.2,1.3-0.9,2.4-2.2,2.8l0,0l-17.4,5.4
		c-1.6,0.5-3.1,1.2-4.5,2.2c-7,5.2-7.3,13.7-7.5,15.3c0,0.1,0.1,0.3,0.2,0.3h39.7h39.7c0.1,0,0.2-0.1,0.2-0.3
		C93.3,105.7,93.2,97.7,86.7,92.5z"/>
	<g>
		<path class="st2" d="M27.7,89.2l-2,0.6c-1.6,0.5-3.1,1.2-4.5,2.2c-7,5.2-7.3,13.7-7.5,15.3c0,0.1,0.1,0.3,0.2,0.3h39.7h39.7
			c0.1,0,0.2-0.1,0.2-0.3c-0.3-1.5-0.4-9.6-6.9-14.8c-1.5-1.2-3.3-2.1-5.1-2.7l-1.9-0.6c-7.9,2.8-16.7,4.4-26,4.4S35.6,92,27.7,89.2
			z"/>
		<path class="st0" d="M62,81.6c-0.6-3.6-0.6-13.1-0.5-14.7c0-0.1-0.1-0.2-0.2-0.2H46c-0.1,0-0.2,0.1-0.2,0.2
			c0,1.5,0.1,10.9-0.5,14.7c-0.2,1.3-0.9,2.4-2.2,2.8l-15.4,4.8c7.9,2.8,16.7,4.4,26,4.4s18-1.6,26-4.4l-15.4-4.8
			C63,84,62.3,82.9,62,81.6z"/>
	</g>
	<g>
		<path class="st3" d="M61.6,74.9c-0.1-3.3,0-6.3,0-7.2c0-0.1-0.1-0.2-0.2-0.2H46c-0.1,0-0.2,0.1-0.2,0.2c0,0.8,0,3.9,0,7.2
			C50.9,76.6,56.4,76.6,61.6,74.9z"/>
	</g>
	<g>
		<path class="st0" d="M35.2,47.1c1.4,3.3,0.6,8.4-1.8,9.4c-2.3,1-5.4-2.5-6.7-5.8c-1.4-3.3-0.6-6.7,1.8-7.7
			C30.8,42,33.8,43.8,35.2,47.1z"/>
		<path class="st0" d="M72.1,47.1c-1.4,3.3-0.6,8.4,1.8,9.4c2.3,1,5.4-2.5,6.7-5.8c1.4-3.3,0.6-6.7-1.8-7.7
			C76.5,42,73.5,43.8,72.1,47.1z"/>
	</g>
	<path class="st0" d="M53.6,14.9c-23.4-0.9-23.8,21.4-23.4,28.8c0.3,5.3,2.4,13.1,3.5,17c0.6,2.2,1.8,4.3,3.5,5.9
		c6.1,5.8,16.4,7.8,16.4,7.8s10.3-2,16.4-7.8c1.7-1.6,2.9-3.7,3.5-5.9c1.1-3.9,3.2-11.6,3.5-17C77.4,36.3,77.1,13.9,53.6,14.9z"/>
	<g>
		<path class="st4" d="M41.4,41.9c1.7,0,3.1,1.6,3.1,3.6s-1.4,3.6-3.1,3.6c-1.7,0-3.1-1.6-3.1-3.6S39.7,41.9,41.4,41.9z"/>
		<ellipse class="st4" cx="65" cy="45.5" rx="3.1" ry="3.6"/>
	</g>
	<linearGradient id="SVGID_2_" gradientUnits="userSpaceOnUse" x1="63.2086" y1="19.3814" x2="78.9306" y2="44.2324">
		<stop  offset="0.3719" style="stop-color:#E57F39"/>
		<stop  offset="1" style="stop-color:#FFBA83"/>
	</linearGradient>
	<path class="st5" d="M66.3,16.7c4.9,0.4,9.2,3.9,11.5,8.2c2.3,4.3,2.8,9.4,2.5,14.3c-0.4,5.9-2.1,11.7-4.9,17
		c3.4-11.7-2.4-24.2-11.9-31.8c-1.7-1.3-1.9-4.5-0.6-6.2C64.1,16.4,64.2,16.5,66.3,16.7z"/>
	<g>
		<g>
			<path class="st6" d="M45.3,60.3c1.4,3.2,4.6,5.4,8.3,5.4s6.9-2.2,8.3-5.4H45.3z"/>
		</g>
	</g>
	<path class="st7" d="M41.4,54.2c0,1.9-1.5,3.4-3.4,3.4c-1.9,0-3.4-1.5-3.4-3.4c0-1.9,1.5-3.4,3.4-3.4
		C39.9,50.8,41.4,52.3,41.4,54.2z"/>
	<path class="st7" d="M71.4,54.2c0,1.9-1.5,3.4-3.4,3.4c-1.9,0-3.4-1.5-3.4-3.4c0-1.9,1.5-3.4,3.4-3.4
		C69.9,50.8,71.4,52.3,71.4,54.2z"/>
</g>
<linearGradient id="SVGID_3_" gradientUnits="userSpaceOnUse" x1="53.8248" y1="20.8078" x2="31.8197" y2="60.204">
	<stop  offset="0.5025" style="stop-color:#E57F39"/>
	<stop  offset="1" style="stop-color:#FFBA83"/>
</linearGradient>
<path class="st8" d="M71.6,20.8c-0.3,4.5-4.2,7.8-8.3,9.2c-4.1,1.4-8.4,1.5-12.5,2.7c-6.7,1.9-12.4,7-15.5,13.5
	c-3.1,6.5-3.3,14.4-0.8,21.1c-2.7-8.2-6.8-18.6-6.2-27.3s4.7-17.4,10.9-23.2s16.2-6.7,24-3.5C67.1,14.8,71.9,16.3,71.6,20.8z"/>
</svg>
