<?xml version="1.0" encoding="utf-8"?>
<!-- Generator: Adobe Illustrator 23.0.3, SVG Export Plug-In . SVG Version: 6.00 Build 0)  -->
<svg version="1.1" id="Calque_1" xmlns="http://www.w3.org/2000/svg" xmlns:xlink="http://www.w3.org/1999/xlink" x="0px" y="0px"
	 viewBox="0 0 182.5 225.5" style="enable-background:new 0 0 182.5 225.5;" xml:space="preserve">
<style type="text/css">
	.st0{fill:#FED83B;}
	.st1{fill:#FFFFFF;}
</style>
<g>
	<circle class="st0" cx="91.2" cy="115.2" r="91.2"/>
	<circle class="st0" cx="91.2" cy="115.2" r="91.2"/>
	<path class="st1" d="M82.2,150.1c-2.1,0-4.1-0.7-5.7-1.9l-0.1-0.1L55,131.7c-4.2-3.2-5-9.2-1.8-13.4c3.2-4.2,9.2-5,13.4-1.8
		l13.9,10.7l32.8-42.8c3.2-4.2,9.2-5,13.4-1.8c0,0,0,0,0,0l-0.2,0.3l0.2-0.3c4.2,3.2,5,9.2,1.8,13.4l-38.6,50.4
		C88,148.7,85.2,150.1,82.2,150.1z"/>
</g>
</svg>
