<?xml version="1.0" encoding="utf-8"?>
<!-- Generator: Adobe Illustrator 23.0.3, SVG Export Plug-In . SVG Version: 6.00 Build 0)  -->
<svg version="1.1" id="Calque_1" xmlns="http://www.w3.org/2000/svg" xmlns:xlink="http://www.w3.org/1999/xlink" x="0px" y="0px"
	 viewBox="0 0 848.7 469.4" style="enable-background:new 0 0 848.7 469.4;" xml:space="preserve">
<style type="text/css">
	.st0{fill:#9DE09D;}
	.st1{fill:#FFFFFF;}
	.st2{fill:#FED83B;}
	.st3{fill:#3F3D56;}
	.st4{fill:#2F2E41;}
	.st5{fill:#FFB8B8;}
	.st6{fill:#CCCCCC;}
	.st7{fill:#00AAFF;}
	.st8{fill:#885DBF;}
	.st9{fill:#FF7502;}
	.st10{fill:#0080BF;}
	.st11{fill:#9DE09D;}
</style>
<path class="st11" d="M436.7,467c-13.4,2-27,2.6-40.5,2c-32.7-1.7-64.8-11.2-92.2-29c-12.2-7.9-23.8-17.7-30.1-30.7
	c-8.6-17.8-5.6-40.2,6.6-55.7c4.5-5.6,9.9-10.3,16.1-13.8c0.9-0.5,1.9-1,2.8-1.5c10.3-5.2,22-7.3,33.5-6.1
	c19.6,2.1,37.6,14.1,48.1,30.8c9.3,14.9,12.5,32.5,14.5,50.1c0.4,3.3,0.7,6.7,1,10c-1.7,9.6-4.3,19-7.8,28.1
	c-0.2,0.4-0.3,0.9-0.4,1.4c2,4.3,3.9,8.7,5.7,13.1c1.7,0.9,3.6,1.4,5.5,1.4L436.7,467L436.7,467z"/>
<path class="st1" d="M393.1,467.9c-1,0.5-2.2,0-2.7-1c0,0,0,0,0,0c-0.2-0.4-0.3-0.8-0.5-1.1c-1.4-3.5-2.9-7-4.5-10.4
	c-20.2-44.3-50.4-83.4-88.2-114.1c-0.4-0.3-0.7-0.8-0.6-1.4c0.2-1.1,1.3-1.8,2.4-1.6c0.2,0,0.3,0.1,0.4,0.1c0.2,0.1,0.3,0.2,0.4,0.3
	c16.2,13.2,31,27.9,44.3,44c13.3,16.1,25,33.4,34.9,51.7c2.7,5,5.3,10.1,7.7,15.2c0.5,1,1,2,1.4,3.1c2,4.3,3.9,8.7,5.7,13.1
	c0,0.1,0.1,0.2,0.1,0.2c0.4,0.7,0.1,1.6-0.7,2C393.3,467.8,393.2,467.9,393.1,467.9z"/>
<circle class="st2" cx="260.5" cy="297" r="39"/>
<path class="st1" d="M256.6,311.9c-0.9,0-1.7-0.3-2.4-0.8l0,0l-9.2-7c-1.8-1.4-2.1-3.9-0.8-5.7c1.4-1.8,3.9-2.1,5.7-0.8l5.9,4.6
	l14-18.3c1.4-1.8,3.9-2.1,5.7-0.8c0,0,0,0,0,0l-0.1,0.1l0.1-0.1c1.8,1.4,2.1,3.9,0.8,5.7l-16.5,21.5
	C259.1,311.3,257.9,311.9,256.6,311.9z"/>
<path class="st3" d="M847.5,469.4H1.2c-0.7,0-1.2-0.5-1.2-1.2c0-0.7,0.5-1.2,1.2-1.2h846.3c0.7,0,1.2,0.5,1.2,1.2
	C848.7,468.9,848.1,469.4,847.5,469.4z"/>
<circle class="st4" cx="165.5" cy="107" r="28.9"/>
<ellipse transform="matrix(0.7071 -0.7071 0.7071 0.7071 -20.1287 121.5056)" class="st4" cx="136.6" cy="85.1" rx="12" ry="9"/>
<ellipse transform="matrix(0.3928 -0.9196 0.9196 0.3928 40.8668 216.9093)" class="st4" cx="184.7" cy="77.5" rx="9" ry="12"/>
<path class="st5" d="M246.1,274.1c2.8-5.3,0.7-11.7-4.5-14.5c-0.6-0.3-1.1-0.5-1.7-0.7l-41.8-88.5l-19.1,13.4l47.1,82.7
	c-1.4,5.8,2.1,11.6,7.9,13.1C238.8,280.8,243.8,278.5,246.1,274.1L246.1,274.1z"/>
<path class="st6" d="M207.7,185.1l-22.2,9.9c-2.4,1.1-5.3,0-6.4-2.4c-0.1-0.2-0.2-0.4-0.2-0.7l-6.5-23.4c-3-6.8,0.1-14.7,6.9-17.6
	c6.7-3,14.6,0.1,17.6,6.8l13,20.4c1.4,2.2,0.8,5.2-1.5,6.7C208.1,184.9,207.9,185,207.7,185.1L207.7,185.1z"/>
<path class="st5" d="M105.1,282.9c5.8-1.3,9.4-7.1,8-12.9c-0.1-0.6-0.3-1.2-0.6-1.8l39.6-89.5l-22.7-5.7l-31.8,89.7
	c-5.3,2.7-7.4,9.2-4.7,14.5C95.2,281.7,100.2,284,105.1,282.9L105.1,282.9z"/>
<polygon class="st5" points="94.3,445 105.8,449.2 127.5,406.8 110.5,400.6 "/>
<path class="st4" d="M124.1,468l-36.2-13.2l0,0l5.1-14l0,0l22.2,8.1C123,451.7,126.9,460.3,124.1,468L124.1,468L124.1,468z"/>
<path class="st7" d="M121.5,420.6c-0.7,0-1.4-0.2-2-0.5l-13.2-6.3c-2.2-1.1-3.3-3.7-2.5-6l37.4-103.5c0.9-2.5,3.7-3.8,6.2-2.9
	c1,0.4,1.9,1.1,2.5,2.1l19.8,32.9c0.9,1.5,0.9,3.4,0.1,4.9l-43.9,76.8C124.9,419.7,123.3,420.6,121.5,420.6z"/>
<circle class="st5" cx="166.5" cy="113.9" r="24.6"/>
<path class="st6" d="M201.2,225.6l-43.5-12l-23.1-46.3c-3.6-7.2-0.7-16,6.5-19.6c2-1,4.3-1.5,6.5-1.5h34.6c3.6,0,7.1,1.3,9.7,3.7
	c9.3,8.3,28.8,32.3,9.4,75.2L201.2,225.6z"/>
<path class="st6" d="M146.8,194.7l-22-10.3c-2.4-1.1-3.4-4-2.3-6.4c0.1-0.2,0.2-0.4,0.3-0.6l13.4-20.2c3.2-6.7,11.1-9.5,17.8-6.3
	c6.6,3.2,9.5,11.1,6.4,17.8l-6.9,23.2c-0.8,2.5-3.4,4-6,3.2C147.2,194.9,147,194.8,146.8,194.7L146.8,194.7z"/>
<polygon class="st5" points="173.4,456.6 185.7,456.6 191.5,409.3 173.4,409.3 "/>
<path class="st4" d="M209.3,468l-38.5,0l0,0l0-14.9l0,0l23.6,0C202.7,453.1,209.3,459.8,209.3,468L209.3,468L209.3,468z"/>
<path class="st7" d="M178.1,438.6c-2.3,0-4.2-1.6-4.7-3.8c-3.5-16.6-21.8-101.7-36.1-145.5c-14.5-44.6,10.2-64.9,15.3-68.5
	c0.5-0.4,1-0.9,1.3-1.5l3.7-8.2c0.8-1.7,2.5-2.8,4.4-2.8h0c27.8,0.2,37.2,8.9,39.9,12.7c0.8,1.1,1.1,2.6,0.8,3.9L185,297.6
	c-0.1,0.5-0.1,0.9-0.1,1.4l17.5,131.9c0.4,2.6-1.5,5.1-4.1,5.4c0,0-0.1,0-0.1,0l-19.6,2.3C178.4,438.6,178.2,438.6,178.1,438.6z"/>
<path class="st4" d="M140.7,98.5c5.6,3.9,12.3,5.9,19.1,5.9c-2.4,1.7-5.2,2.8-8.1,3.3c9.1,1.9,18.4,2,27.5,0.2c2-0.3,4-1,5.8-2
	c1.8-1,3.1-2.7,3.6-4.8c0.6-3.4-2.1-6.6-4.9-8.7c-8.7-6.4-19.8-8.7-30.2-6c-3.4,0.9-6.8,2.3-9,5.1s-2.8,6.9-0.8,9.7L140.7,98.5z"/>
<circle class="st2" cx="591.5" cy="192" r="13"/>
<path class="st1" d="M590.2,197c-0.3,0-0.6-0.1-0.8-0.3l0,0l-3.1-2.3c-0.6-0.5-0.7-1.3-0.3-1.9s1.3-0.7,1.9-0.3c0,0,0,0,0,0l2,1.5
	l4.7-6.1c0.5-0.6,1.3-0.7,1.9-0.3c0,0,0,0,0,0l0,0l0,0c0.6,0.5,0.7,1.3,0.3,1.9l-5.5,7.2C591,196.8,590.6,197,590.2,197z"/>
<circle class="st2" cx="591.5" cy="230" r="13"/>
<path class="st1" d="M590.2,235c-0.3,0-0.6-0.1-0.8-0.3l0,0l-3.1-2.3c-0.6-0.5-0.7-1.3-0.3-1.9s1.3-0.7,1.9-0.3c0,0,0,0,0,0l2,1.5
	l4.7-6.1c0.5-0.6,1.3-0.7,1.9-0.3c0,0,0,0,0,0l0,0l0,0c0.6,0.5,0.7,1.3,0.3,1.9l-5.5,7.2C591,234.8,590.6,235,590.2,235z"/>
<circle class="st2" cx="598.5" cy="274" r="13"/>
<path class="st1" d="M597.2,279c-0.3,0-0.6-0.1-0.8-0.3l0,0l-3.1-2.3c-0.6-0.5-0.7-1.3-0.3-1.9s1.3-0.7,1.9-0.3c0,0,0,0,0,0l2,1.5
	l4.7-6.1c0.5-0.6,1.3-0.7,1.9-0.3c0,0,0,0,0,0l0,0l0,0c0.6,0.5,0.7,1.3,0.3,1.9l-5.5,7.2C598,278.8,597.6,279,597.2,279z"/>
<path class="st8" d="M723.9,382.5c-0.1,0-0.2,0-0.2,0l-16.1,0v-2.4h16.2c0.4,0,8,0.2,15.1-8.3c10.5-12.7,19.1-44.3,0.6-122.3
	c-25-104.8-4.1-197.4,6-232.4c1.8-6.2-1.8-12.6-7.9-14.4c-1-0.3-2.1-0.5-3.2-0.5h-241c-3.7,0-7.2,1.8-9.4,4.8
	c-4.3,5.9-10.2,17.2-13.8,37.7l-2.3-0.4c3.8-20.9,9.8-32.6,14.3-38.6c2.6-3.6,6.8-5.8,11.3-5.8h241c7.7,0,14,6.2,14,14
	c0,1.3-0.2,2.6-0.5,3.9c-10.1,34.8-30.8,126.9-5.9,231.2c18.8,79.1,9.8,111.3-1.1,124.4C733.3,382.1,725.4,382.5,723.9,382.5z"/>
<path class="st9" d="M680.4,426c-0.1,0-0.2,0-0.2,0l-16.1,0v-2.4h16.2c0.4,0,8,0.2,15.1-8.3c10.5-12.7,19.1-44.3,0.6-122.3
	c-25-104.8-4.1-197.4,6-232.4c1.8-6.2-1.8-12.6-7.9-14.4c-1-0.3-2.1-0.5-3.2-0.5h-241c-3.7,0-7.2,1.8-9.4,4.8
	c-4.3,5.9-10.2,17.2-13.8,37.7l-2.3-0.4c3.8-20.9,9.8-32.6,14.3-38.6c2.6-3.6,6.8-5.8,11.3-5.8h241c7.7,0,14,6.2,14,14
	c0,1.3-0.2,2.6-0.5,3.9c-10.1,34.8-30.8,126.9-5.9,231.2c18.8,79.1,9.8,111.3-1.1,124.4C689.9,425.5,682,426,680.4,426z"/>
<path class="st10" d="M654.8,335.9c-24.8-104.3-4.1-196.4,5.9-231.2c2.1-7.4-2.2-15.2-9.6-17.3c-1.3-0.4-2.6-0.5-3.9-0.5h-241
	c-4.5,0-8.7,2.1-11.3,5.8c-9.7,13.4-29.9,57.8-7.4,180.5c12.1,65.7,11.9,110.5,7.9,140c-2.2,16.6-5.6,28.4-8.7,36.3l-0.3,0.8
	c-0.7,1.6-1,3.3-1,5c0,4,1.6,7.7,4.5,10.4c0.9,0.9,2,1.6,3.2,2.2c1,0.5,2,0.9,3,1.1c1.1,0.3,2.2,0.4,3.3,0.4h237.3c0,0,0.1,0,0.2,0
	c1.5,0,9.5-0.4,16.6-9.1C664.5,447.2,673.6,414.9,654.8,335.9z M651.9,458.7c-7,8.6-14.7,8.3-15.1,8.3H399.4c-3.9,0-7.5-1.9-9.6-5.1
	c-1.9-2.8-2.5-6.2-1.6-9.4c0.1-0.5,0.3-0.9,0.4-1.4c3.5-9.1,6.1-18.5,7.8-28.1c5.6-30.8,6.7-78.2-6.6-150.3
	c-22.4-121.9-2.6-165.6,6.9-178.7c2.2-3,5.7-4.8,9.4-4.8h241c6.4,0,11.6,5.2,11.6,11.6c0,1.1-0.2,2.2-0.5,3.2
	c-10.1,35-30.9,127.6-6,232.4C671,414.4,662.4,445.9,651.9,458.7z"/>
<path class="st6" d="M540.3,200.4H416.1c-5.3,0-9.5-4.3-9.5-9.5s4.3-9.5,9.5-9.5c0,0,0,0,0,0h124.2c5.3,0,9.5,4.3,9.5,9.5
	S545.5,200.4,540.3,200.4C540.3,200.4,540.3,200.4,540.3,200.4z"/>
<path class="st6" d="M540.3,241.4H416.1c-5.3,0-9.5-4.3-9.5-9.5s4.3-9.5,9.5-9.5c0,0,0,0,0,0h124.2c5.3,0,9.5,4.3,9.5,9.5
	S545.5,241.4,540.3,241.4C540.3,241.4,540.3,241.4,540.3,241.4z"/>
<path class="st6" d="M550.3,283.4H426.1c-5.3,0-9.5-4.3-9.5-9.5s4.3-9.5,9.5-9.5c0,0,0,0,0,0h124.2c5.3,0,9.5,4.3,9.5,9.5
	S555.5,283.4,550.3,283.4C550.3,283.4,550.3,283.4,550.3,283.4z"/>
<path class="st6" d="M557.3,327.4H433.1c-5.3,0-9.5-4.3-9.5-9.5s4.3-9.5,9.5-9.5h124.2c5.3,0,9.5,4.3,9.5,9.5
	S562.5,327.4,557.3,327.4L557.3,327.4z"/>
<path class="st2" d="M557.3,126.5h-89.2c-5.3,0-9.5-4.3-9.5-9.5s4.3-9.5,9.5-9.5c0,0,0,0,0,0h89.2c5.3,0,9.5,4.3,9.5,9.5
	S562.6,126.5,557.3,126.5L557.3,126.5z"/>
<circle class="st6" cx="606.5" cy="317.9" r="13"/>
<path class="st6" d="M563.3,370.4H439.1c-5.3,0-9.5-4.3-9.5-9.5s4.3-9.5,9.5-9.5h124.2c5.3,0,9.5,4.3,9.5,9.5
	S568.5,370.4,563.3,370.4L563.3,370.4z"/>
<circle class="st6" cx="612.5" cy="360.9" r="13"/>
</svg>
